# Blender v3.1.2 OBJ File: 'divano.blend'
# www.blender.org
mtllib divano.mtl
o Cube
v 3.147621 1.388027 -1.883369
v 3.147621 0.020997 -1.883369
v -2.820312 1.388027 -1.883370
v -2.820312 0.020997 -1.883370
v 3.147621 1.388027 -3.883369
v 3.147621 0.020997 -3.883369
v -2.820312 1.388027 -3.883369
v -2.820312 0.020997 -3.883369
v -1.842234 0.020997 -3.883369
v -1.842234 1.388027 -1.883369
v -1.842234 1.388027 -3.883369
v -1.842234 0.020997 -1.883369
v 2.134323 1.388027 -3.883369
v 2.134323 0.020997 -1.883369
v 2.134323 0.020997 -3.883369
v 2.134323 1.388027 -1.883369
v 3.147621 0.020997 -3.379096
v -2.820312 1.388027 -3.379096
v -2.820312 0.020997 -3.379096
v 3.147621 1.388027 -3.379096
v -1.842234 0.020997 -3.379096
v -1.842234 1.388027 -3.379096
v 2.134323 1.388027 -3.379096
v 2.134323 0.020997 -3.379096
v -2.820312 1.972292 -3.379096
v -2.820312 1.972292 -3.883369
v -1.842234 1.972292 -1.883369
v -2.820312 1.972292 -1.883370
v 2.134323 1.972292 -3.883369
v 3.147621 1.972292 -3.883369
v 3.147621 1.972292 -3.379096
v 3.147621 1.972292 -1.883369
v -1.842234 1.972292 -3.883369
v -1.842234 1.972292 -3.379096
v 2.134323 1.972292 -1.883369
v 2.134323 1.972292 -3.379096
v -2.820312 2.465774 -3.379096
v -2.820312 2.465774 -3.883369
v 2.134323 2.465774 -3.883369
v 3.147621 2.465774 -3.883369
v -1.842234 2.465774 -3.883369
v 3.147621 2.465774 -3.379096
v -1.842234 2.465774 -3.379096
v 2.134323 2.465774 -3.379096
vt 0.541769 0.000000
vt 0.541769 0.250627
vt 0.443868 0.250627
vt 0.443868 0.000000
vt 0.375000 0.936966
vt 0.625000 0.936966
vt 0.625000 1.000000
vt 0.375000 1.000000
vt 0.375000 0.207118
vt 0.625000 0.207118
vt 0.625000 0.250000
vt 0.375000 0.250000
vt 0.188034 0.711166
vt 0.375000 0.711166
vt 0.375000 0.750000
vt 0.188034 0.750000
vt 0.015354 0.711166
vt 0.265354 0.711166
vt 0.265354 0.750000
vt 0.015354 0.750000
vt 0.375000 0.313034
vt 0.625000 0.313034
vt 0.625000 0.500000
vt 0.375000 0.500000
vt 0.015354 0.542882
vt 0.265354 0.542882
vt 0.188034 0.542882
vt 0.375000 0.542882
vt 0.375000 0.000000
vt 0.625000 0.000000
vt 0.625000 0.038834
vt 0.375000 0.038834
vt 0.180590 0.830209
vt 0.180590 0.163889
vt 0.278490 0.163889
vt 0.278490 0.830209
vt 0.639669 0.250627
vt 0.639669 0.420418
vt 0.541769 0.420418
vt 0.541769 0.250627
vt 0.188034 0.500000
vt 0.015354 0.500000
vt 0.265354 0.500000
vt 0.125000 0.500000
vt 0.125000 0.542882
vt 0.361179 0.670249
vt 0.361179 0.585752
vt 0.459080 0.585752
vt 0.459080 0.670249
vt 0.376969 0.542882
vt 0.563934 0.542882
vt 0.563934 0.711166
vt 0.376969 0.711166
vt 0.125000 0.711166
vt 0.125000 0.750000
vt 0.625000 0.750000
vt 0.000000 0.000000
vt 0.634277 0.000000
vt 0.634278 0.365722
vt 0.000000 0.365722
vt 0.361179 0.163889
vt 0.361179 0.830209
vt 0.443868 0.335124
vt 0.361179 0.335124
vt 0.361179 0.250627
vt 0.082689 0.163889
vt 0.082689 0.830209
vt 0.000000 0.830209
vt 0.000000 0.163889
vt 0.625000 0.500000
vt 0.811966 0.500000
vt 0.811966 0.542882
vt 0.625000 0.542882
vt 0.625000 0.711166
vt 0.811966 0.711166
vt 0.811966 0.750000
vt 0.625000 0.750000
vt 0.639669 0.420418
vt 0.639669 0.584307
vt 0.541769 0.584307
vt 0.541769 0.420418
vt 0.541769 0.250627
vt 0.541769 0.000000
vt 0.639669 0.000000
vt 0.639669 0.250627
vt 0.541769 0.335124
vt 0.180590 0.000000
vt 0.278490 0.000000
vt 0.180590 0.163889
vt 0.180590 0.830209
vt 0.361179 0.335124
vt 0.459080 0.335124
vt 0.634278 0.936255
vt 0.634278 0.000000
vt 1.000000 0.000000
vt 1.000000 0.936255
vt 0.811966 0.711166
vt 0.875000 0.711166
vt 0.875000 0.750000
vt 0.811966 0.750000
vt 0.811966 0.542882
vt 0.875000 0.542882
vt 0.811966 0.500000
vt 0.875000 0.500000
vt 0.082689 0.000000
vt 0.000000 0.000000
vt 0.361179 0.000000
vt 0.082689 1.000000
vt 0.000000 1.000000
vt 0.634278 0.674619
vt 0.000000 0.674619
vt 0.541769 0.585752
vt 0.541769 0.670249
vn 1.0000 0.0000 0.0000
vn -1.0000 0.0000 0.0000
vn 0.0000 0.0000 -1.0000
vn 0.0000 -1.0000 0.0000
vn 0.0000 0.0000 1.0000
vn 0.0000 1.0000 0.0000
g Cube_Cube_Material
usemtl Material
s off
f 1/1/1 20/2/1 31/3/1 32/4/1
f 19/5/2 18/6/2 7/7/2 8/8/2
f 15/9/3 13/10/3 5/11/3 6/12/3
f 21/13/4 12/14/4 4/15/4 19/16/4
f 12/17/5 10/18/5 3/19/5 4/20/5
f 17/21/1 20/22/1 1/23/1 2/24/1
f 14/25/5 16/26/5 10/18/5 12/17/5
f 24/27/4 14/28/4 12/14/4 21/13/4
f 8/29/3 7/30/3 11/31/3 9/32/3
f 13/33/3 11/34/3 33/35/3 29/36/3
f 16/37/5 1/38/5 32/39/5 35/40/5
f 17/41/4 2/24/4 14/28/4 24/27/4
f 2/42/5 1/43/5 16/26/5 14/25/5
f 9/32/3 11/31/3 13/10/3 15/9/3
f 6/44/4 17/41/4 24/27/4 15/45/4
f 7/46/2 18/47/2 25/48/2 26/49/2
f 16/50/6 23/51/6 22/52/6 10/53/6
f 15/45/4 24/27/4 21/13/4 9/54/4
f 6/12/1 5/11/1 20/22/1 17/21/1
f 9/54/4 21/13/4 19/16/4 8/55/4
f 4/15/2 3/56/2 18/6/2 19/5/2
f 5/57/3 13/58/3 29/59/3 30/60/3
f 29/36/3 33/35/3 41/61/3 39/62/3
f 31/3/1 30/63/1 40/64/1 42/65/1
f 34/66/5 36/67/5 44/68/5 43/69/5
f 32/70/6 31/71/6 36/72/6 35/73/6
f 27/74/6 34/75/6 25/76/6 28/77/6
f 3/78/5 10/79/5 27/80/5 28/81/5
f 23/82/2 16/83/2 35/84/2 36/85/2
f 20/2/1 5/86/1 30/63/1 31/3/1
f 11/34/3 7/87/3 26/88/3 33/35/3
f 22/89/5 23/90/5 36/67/5 34/66/5
f 18/47/2 3/91/2 28/92/2 25/48/2
f 10/93/1 22/94/1 34/95/1 27/96/1
f 43/97/6 41/98/6 38/99/6 37/100/6
f 44/101/6 39/102/6 41/98/6 43/97/6
f 42/103/6 40/104/6 39/102/6 44/101/6
f 25/105/5 34/66/5 43/69/5 37/106/5
f 33/35/3 26/88/3 38/107/3 41/61/3
f 36/67/5 31/108/5 42/109/5 44/68/5
f 30/60/3 29/59/3 39/110/3 40/111/3
f 26/49/2 25/48/2 37/112/2 38/113/2
o Cube.002
v 0.251734 1.411862 -3.447407
v 0.251734 1.622132 -3.447407
v 2.109689 1.411862 -3.398336
v 2.109689 1.622132 -3.398336
v 0.211766 1.411862 -1.934105
v 0.211766 1.622132 -1.934105
v 2.069722 1.411862 -1.885034
v 2.069722 1.622132 -1.885034
vt 0.375000 0.000000
vt 0.625000 0.000000
vt 0.625000 0.250000
vt 0.375000 0.250000
vt 0.625000 0.500000
vt 0.375000 0.500000
vt 0.625000 0.750000
vt 0.375000 0.750000
vt 0.625000 1.000000
vt 0.375000 1.000000
vt 0.125000 0.500000
vt 0.125000 0.750000
vt 0.875000 0.500000
vt 0.875000 0.750000
vn 0.0264 0.0000 -0.9997
vn 0.9997 0.0000 0.0264
vn -0.0264 0.0000 0.9997
vn -0.9997 0.0000 -0.0264
vn 0.0000 -1.0000 -0.0000
vn 0.0000 1.0000 -0.0000
g Cube.002_Cube.002_Material.001
usemtl Material.001
s off
f 45/114/7 46/115/7 48/116/7 47/117/7
f 47/117/8 48/116/8 52/118/8 51/119/8
f 51/119/9 52/118/9 50/120/9 49/121/9
f 49/121/10 50/120/10 46/122/10 45/123/10
f 47/124/11 51/119/11 49/121/11 45/125/11
f 52/118/12 48/126/12 46/127/12 50/120/12
o Cube.001_Cube.003
v -1.842370 1.411862 -3.502714
v -1.842370 1.622132 -3.502714
v 0.015585 1.411862 -3.453644
v 0.015585 1.622132 -3.453644
v -1.882338 1.411862 -1.989412
v -1.882338 1.622132 -1.989412
v -0.024383 1.411862 -1.940342
v -0.024383 1.622132 -1.940342
vt 0.375000 0.000000
vt 0.625000 0.000000
vt 0.625000 0.250000
vt 0.375000 0.250000
vt 0.625000 0.500000
vt 0.375000 0.500000
vt 0.625000 0.750000
vt 0.375000 0.750000
vt 0.625000 1.000000
vt 0.375000 1.000000
vt 0.125000 0.500000
vt 0.125000 0.750000
vt 0.875000 0.500000
vt 0.875000 0.750000
vn 0.0264 0.0000 -0.9997
vn 0.9997 0.0000 0.0264
vn -0.0264 0.0000 0.9997
vn -0.9997 0.0000 -0.0264
vn 0.0000 -1.0000 0.0000
vn 0.0000 1.0000 -0.0000
g Cube.001_Cube.003_Material.001
usemtl Material.001
s off
f 53/128/13 54/129/13 56/130/13 55/131/13
f 55/131/14 56/130/14 60/132/14 59/133/14
f 59/133/15 60/132/15 58/134/15 57/135/15
f 57/135/16 58/134/16 54/136/16 53/137/16
f 55/138/17 59/133/17 57/135/17 53/139/17
f 60/132/18 56/140/18 54/141/18 58/134/18
