# Blender v3.1.2 OBJ File: 'room.blend'
# www.blender.org
mtllib room.mtl
o room_Plane
v -5.214415 -0.000001 8.377804
v 5.036813 -0.000001 8.377804
v -5.214415 -0.000001 -8.377804
v 5.036813 -0.000001 -8.377804
v -5.474076 8.661165 -8.842471
v 5.296474 8.661165 -8.842471
v 5.296474 8.649538 8.842471
v 5.296474 8.649538 -8.842471
v -5.474076 8.653010 8.842471
v 5.296474 8.653010 8.842471
v -5.474076 2.313546 8.842471
v -5.474076 2.313546 -8.842471
v -5.214415 -0.000001 -7.427837
v 5.036813 -0.000001 -7.427837
v 5.296474 8.649538 -7.427837
v -5.474076 2.313546 -7.427837
v -5.214415 -0.000001 -2.194665
v -5.474076 2.313546 -2.194665
v 5.036813 -0.000001 -2.194666
v 5.296474 8.649538 -2.194666
v -5.474076 8.635482 8.842471
v -5.474076 8.635482 -2.194665
v -5.474076 8.675828 -8.842471
v -5.474076 8.675828 -7.427837
v -5.474076 5.432844 8.842471
v -5.474076 5.432845 -2.194665
v -5.474076 8.635482 -7.435880
v -5.474076 5.432845 -7.435880
v -5.671727 -0.246932 9.196170
v 5.494125 -0.246932 9.196170
v -5.671727 -0.246932 -9.196170
v 5.494125 -0.246932 -9.196170
v -5.474076 8.661165 -9.196170
v 5.296474 8.661165 -9.196170
v 5.494125 8.649538 8.842471
v 5.494125 8.649538 -8.842471
v -5.474076 8.653010 9.196170
v 5.296474 8.653010 9.196170
v -5.671727 2.313546 8.842471
v -5.671727 2.313546 -8.842471
v -5.671727 -0.246932 -7.427837
v 5.494125 -0.246932 -7.427837
v 5.494125 8.649538 -7.427837
v -5.671727 2.313546 -7.427837
v -5.671727 -0.246932 -2.194665
v -5.671727 2.313546 -2.194665
v 5.494125 -0.246932 -2.194666
v 5.494125 8.649538 -2.194666
v -5.671727 8.635482 8.842471
v -5.671727 8.635482 -2.194665
v -5.671727 8.675828 -8.842471
v -5.671727 8.675828 -7.427837
v -5.671727 5.432844 8.842471
v -5.671727 5.432845 -2.194665
v -5.671727 8.635482 -7.435880
v -5.671727 5.432845 -7.435880
v -5.474076 -0.000001 -2.194665
v -5.474076 -0.000001 8.842471
v 5.296474 -0.000001 8.842471
v 5.296474 -0.000001 -7.427837
v 5.296474 -0.000001 -8.842471
v -5.474076 -0.000001 -8.842471
v -5.474076 -0.000001 -7.427837
v 5.296474 -0.000001 -2.194666
v -5.474076 0.453964 -2.194665
v -5.474076 0.453964 8.842471
v 5.296474 0.453964 8.842471
v 5.296474 0.453964 -7.427837
v 5.296474 0.453964 -8.842471
v -5.474076 0.453964 -8.842471
v -5.474076 0.453964 -7.427837
v 5.296474 0.453964 -2.194666
v -5.214415 0.453964 -2.194665
v -5.214415 0.453964 8.377804
v 5.036813 0.453964 8.377804
v 5.036813 0.453964 -7.427837
v 5.036813 0.453964 -8.377804
v -5.214415 0.453964 -8.377804
v -5.214415 0.453964 -7.427837
v 5.036813 0.453964 -2.194666
vt 0.634371 3.161824
vt 1.486633 3.162771
vt 1.510988 3.223601
vt 0.634354 3.222627
vt 0.524145 0.587015
vt 0.524145 0.625660
vt 0.520020 0.625660
vt 0.520027 0.582863
vt -0.417683 1.435235
vt -0.417683 1.771644
vt -0.444314 1.771644
vt -0.444314 1.435235
vt 1.029269 -0.091009
vt 1.413478 -0.088674
vt 1.413389 -0.073777
vt 1.029179 -0.076113
vt 0.540644 0.582863
vt 0.540644 0.636361
vt 0.536519 0.636361
vt 0.536519 0.582863
vt 0.335194 0.566921
vt 0.335194 0.583419
vt 0.327611 0.583419
vt 0.327611 0.566921
vt 0.342777 0.377177
vt 0.342777 0.393674
vt 0.335194 0.393674
vt 0.335194 0.377177
vt 0.304861 0.601951
vt 0.304861 0.377177
vt 0.312444 0.377177
vt 0.312444 0.601951
vt 1.634974 1.828927
vt 1.634974 1.435051
vt 1.683933 1.435052
vt 1.683933 1.828927
vt 0.342777 0.454704
vt 0.342777 0.583419
vt 0.335194 0.583419
vt 0.335194 0.454704
vt 0.335194 0.505892
vt 0.327611 0.505892
vt 0.335194 0.377177
vt 0.327611 0.377177
vt 0.297278 0.601951
vt 0.297278 0.377177
vt 0.304861 0.377177
vt 0.304861 0.601951
vt 1.197297 -1.124574
vt -0.590392 -1.127178
vt -0.590258 -1.219752
vt 1.197432 -1.217148
vt 1.196554 -0.614602
vt -0.591135 -0.617206
vt 1.195053 0.415684
vt -0.592636 0.413080
vt -0.592887 0.585403
vt -0.592636 0.413080
vt 1.354553 0.415916
vt 1.354301 0.588240
vt -0.593630 1.095375
vt 1.353559 1.098212
vt -0.595247 2.205410
vt 1.351942 2.208247
vt 0.358844 0.601951
vt 0.358844 0.377177
vt 0.362968 0.377177
vt 0.362968 0.601951
vt 0.726510 0.144153
vt 0.726510 0.160650
vt 0.722385 0.160650
vt 0.722385 0.144153
vt 2.247083 1.721527
vt 1.180753 1.750439
vt 1.180222 1.700344
vt 2.246552 1.671432
vt 0.726510 0.221680
vt 0.722385 0.221680
vt 0.726510 0.350395
vt 0.722385 0.350395
vt 1.608343 2.266066
vt 1.608343 1.435051
vt 1.634974 1.435051
vt 1.634974 2.266066
vt 0.544769 0.599361
vt 0.544769 0.582863
vt 0.548894 0.582863
vt 0.548894 0.599361
vt 0.726510 0.205276
vt 0.726510 0.144153
vt 0.730634 0.144153
vt 0.730634 0.205276
vt 0.350360 0.388255
vt 0.350360 0.449285
vt 0.342777 0.449285
vt 0.342777 0.388255
vt 0.357943 0.561502
vt 0.357943 0.572581
vt 0.350360 0.572581
vt 0.350360 0.561502
vt 0.327611 0.377177
vt 0.327611 0.591113
vt 0.320027 0.591113
vt 0.320027 0.377177
vt 0.368387 0.363508
vt 0.491684 0.363508
vt 0.491684 0.368927
vt 0.362968 0.368927
vt 0.368387 0.149572
vt 0.362968 0.144153
vt 0.563792 0.149572
vt 0.552713 0.149572
vt 0.552713 0.144153
vt 0.569211 0.144153
vt 0.563792 0.363508
vt 0.569211 0.368927
vt 0.552713 0.363508
vt 0.552713 0.368927
vt 0.491684 0.149572
vt 0.491684 0.144153
vt 1.710564 1.829070
vt 1.710564 1.435051
vt 1.745550 1.435051
vt 1.745550 1.829070
vt 0.357943 0.500473
vt 0.350360 0.500473
vt 0.350360 0.572581
vt 0.342777 0.572581
vt 0.357943 0.377177
vt 0.350360 0.377177
vt 0.312444 0.591113
vt 0.312444 0.377177
vt 0.320027 0.377177
vt 0.320027 0.591113
vt 0.350360 0.377177
vt 0.342777 0.377177
vt -0.558783 -0.040053
vt 0.253805 -0.035113
vt 0.250625 0.487923
vt -0.561962 0.482983
vt -0.275442 -0.560683
vt 0.189688 -0.557856
vt 0.186501 -0.035522
vt -0.278629 -0.038350
vt 1.062360 0.492857
vt 0.250625 0.487923
vt 0.253833 -0.034620
vt 1.065568 -0.029686
vt 0.252359 0.422457
vt 0.252358 0.394537
vt 0.317791 0.394537
vt 0.317792 0.422457
vt 0.557342 1.026370
vt 0.336803 1.025035
vt 0.337653 0.885323
vt 0.558191 0.886658
vt -0.555596 -0.562386
vt -0.495980 -0.562024
vt -0.499167 -0.039690
vt -0.558783 -0.040053
vt 1.022473 1.029186
vt 1.023322 0.889475
vt 1.024467 0.701105
vt 0.559336 0.698288
vt 0.560512 0.504885
vt 1.025642 0.507702
vt 0.278037 0.884962
vt 0.280372 0.500753
vt 0.339988 0.501114
vt 0.338459 0.696951
vt 0.339634 0.503548
vt -0.565232 1.020931
vt -0.547034 0.483074
vt 0.264701 0.488008
vt 0.276295 1.026046
vt 0.548862 -0.032827
vt 0.552140 -0.570072
vt 1.017270 -0.567245
vt 1.028898 -0.029909
vt -0.568499 1.558386
vt -0.550320 1.021022
vt 0.262267 1.025961
vt 0.273912 1.563507
vt 0.974485 1.567765
vt 0.975429 1.413141
vt 1.035045 1.413504
vt 1.049007 1.568218
vt 0.753947 1.566425
vt 0.754891 1.411801
vt 0.253802 -0.034620
vt 0.271985 -0.571775
vt 0.331602 -0.571413
vt 0.328323 -0.034167
vt 0.289761 1.408973
vt 0.290911 1.220603
vt 0.292091 1.027201
vt 0.757221 1.030028
vt 0.756041 1.223431
vt 0.977773 1.028932
vt 1.037389 1.029295
vt 0.978098 1.031371
vt 0.976917 1.224774
vt 1.552028 -0.042290
vt 1.028995 -0.045886
vt 1.029097 -0.060791
vt 1.567057 -0.057521
vt 1.554404 2.395813
vt 1.553610 1.461728
vt 1.581022 1.435051
vt 1.581022 2.395791
vt 0.748385 0.988210
vt 0.748696 0.743580
vt 0.755673 0.743588
vt 0.755673 0.995212
vt 0.346908 0.721215
vt 0.346902 0.576732
vt 0.351033 0.572581
vt 0.351033 0.721215
vt 0.762849 0.988308
vt 0.763044 0.743579
vt 0.770025 0.743585
vt 0.770025 0.995303
vt 0.346902 0.678857
vt 0.346902 0.717503
vt 0.342784 0.721654
vt 0.342777 0.678857
vt 0.532394 0.643893
vt 0.532394 0.582863
vt 0.536519 0.582863
vt 0.536519 0.643893
vt 0.528270 0.582863
vt 0.528270 0.689139
vt 0.524145 0.689139
vt 0.524145 0.582863
vt 0.544769 0.582863
vt 0.544769 0.634968
vt 0.540644 0.634968
vt 0.540644 0.582863
vt 0.532394 0.582863
vt 0.532394 0.643987
vt 0.528270 0.643987
vt 0.528270 0.582863
vt 0.524145 0.677765
vt 0.524145 0.731262
vt 0.520020 0.731262
vt 0.520020 0.677765
vn -0.9640 0.0109 -0.2656
vn 0.6464 0.0552 0.7610
vn 0.0000 0.0000 1.0000
vn 0.0000 0.0000 -1.0000
vn 1.0000 0.0000 0.0000
vn -1.0000 0.0000 0.0000
vn 0.0000 1.0000 0.0000
vn 0.0000 -1.0000 -0.0000
vn -0.9640 0.0108 0.2656
vn 0.9640 0.0108 0.2656
vn -0.6615 0.0151 -0.7498
vn -0.6615 0.0151 0.7498
vn 0.9640 0.0109 -0.2656
vn 0.6464 0.0552 -0.7610
g room_Plane_Material.005
usemtl Material.005
s off
f 9/1/1 58/2/1 29/3/1 37/4/1
f 58/5/2 11/6/2 39/7/2 29/8/2
f 11/9/3 25/10/3 53/11/3 39/12/3
f 23/13/4 12/14/4 40/15/4 51/16/4
f 27/17/4 28/18/4 56/19/4 55/20/4
f 60/21/5 61/22/5 69/23/5 68/24/5
f 62/25/6 63/26/6 71/27/6 70/28/6
f 58/29/3 59/30/3 67/31/3 66/32/3
f 63/33/6 57/34/6 65/35/6 71/36/6
f 57/37/6 58/38/6 66/39/6 65/40/6
f 64/41/5 60/21/5 68/24/5 72/42/5
f 59/43/5 64/41/5 72/42/5 67/44/5
f 61/45/4 62/46/4 70/47/4 69/48/4
g room_Plane_pavimento
usemtl pavimento
f 13/49/7 14/50/7 4/51/7 3/52/7
f 17/53/7 19/54/7 14/50/7 13/49/7
f 1/55/7 2/56/7 19/54/7 17/53/7
f 41/57/8 31/58/8 32/59/8 42/60/8
f 45/61/8 41/57/8 42/60/8 47/62/8
f 29/63/8 45/61/8 47/62/8 30/64/8
f 5/65/7 6/66/7 34/67/7 33/68/7
f 8/69/7 15/70/7 43/71/7 36/72/7
f 10/73/7 9/74/7 37/75/7 38/76/7
f 15/70/7 20/77/7 48/78/7 43/71/7
f 20/77/7 7/79/7 35/80/7 48/78/7
f 21/81/7 22/82/7 50/83/7 49/84/7
f 24/85/7 23/86/7 51/87/7 52/88/7
f 22/89/7 27/90/7 55/91/7 50/92/7
g room_Plane_battiscopa
usemtl battiscopa
f 14/93/6 19/94/6 80/95/6 76/96/6
f 13/97/5 3/98/5 78/99/5 79/100/5
f 3/101/3 4/102/3 77/103/3 78/104/3
f 74/105/7 73/106/7 65/107/7 66/108/7
f 75/109/7 74/105/7 66/108/7 67/110/7
f 77/111/7 76/112/7 68/113/7 69/114/7
f 78/115/7 77/111/7 69/114/7 70/116/7
f 79/117/7 78/115/7 70/116/7 71/118/7
f 76/112/7 80/119/7 72/120/7 68/113/7
f 73/121/7 79/122/7 71/123/7 65/124/7
f 80/119/7 75/109/7 67/110/7 72/120/7
f 17/125/5 13/97/5 79/100/5 73/126/5
f 19/94/6 2/127/6 75/128/6 80/95/6
f 1/129/5 17/125/5 73/126/5 74/130/5
f 2/131/4 1/132/4 74/133/4 75/134/4
f 4/135/6 14/93/6 76/96/6 77/136/6
g room_Plane_muro
usemtl muro
f 62/137/3 61/138/3 6/139/3 5/140/3
f 64/141/6 59/142/6 7/143/6 20/144/6
f 59/145/4 58/146/4 9/147/4 10/148/4
f 63/149/5 62/150/5 12/151/5 16/152/5
f 57/153/5 63/154/5 16/155/5 18/156/5
f 61/157/6 60/158/6 15/159/6 8/160/6
f 58/161/5 57/153/5 18/156/5 11/162/5
f 60/158/6 64/141/6 20/144/6 15/159/6
f 25/163/5 26/164/5 22/165/5 21/166/5
f 16/155/5 12/167/5 23/168/5 24/169/5
f 11/162/5 18/156/5 26/164/5 25/163/5
f 22/165/5 26/164/5 28/170/5 27/171/5
f 31/172/4 33/173/4 34/174/4 32/175/4
f 47/176/5 48/177/5 35/178/5 30/179/5
f 30/180/3 38/181/3 37/182/3 29/183/3
f 41/184/6 44/185/6 40/186/6 31/187/6
f 45/188/6 46/189/6 44/185/6 41/184/6
f 32/190/5 36/191/5 43/192/5 42/193/5
f 29/183/6 39/194/6 46/189/6 45/188/6
f 42/193/5 43/192/5 48/177/5 47/176/5
f 53/195/6 49/196/6 50/197/6 54/198/6
f 44/185/6 52/199/6 51/200/6 40/186/6
f 39/194/6 53/195/6 54/198/6 46/189/6
f 50/197/6 55/201/6 56/202/6 54/198/6
f 62/203/9 5/204/9 33/205/9 31/206/9
f 6/207/10 61/208/10 32/209/10 34/210/10
f 61/211/11 8/212/11 36/213/11 32/214/11
f 7/215/12 59/216/12 30/217/12 35/218/12
f 59/219/13 10/220/13 38/221/13 30/222/13
f 12/223/14 62/224/14 31/225/14 40/226/14
f 18/227/7 16/228/7 44/229/7 46/230/7
f 16/231/3 24/232/3 52/233/3 44/234/3
f 26/235/4 18/236/4 46/237/4 54/238/4
f 28/239/8 26/240/8 54/241/8 56/242/8
g room_Plane_Material.004
usemtl Material.004
f 25/243/3 21/244/3 49/245/3 53/246/3
o tetto_Plane.003
v -5.583470 8.781884 8.930866
v 5.402102 8.781884 8.930866
v -5.583470 8.781884 -8.930866
v 5.402102 8.781884 -8.930866
v -5.583470 8.576090 8.930866
v 5.402102 8.576090 8.930866
v -5.583470 8.576090 -8.930866
v 5.402102 8.576090 -8.930866
vt 0.000000 0.000000
vt 1.000000 0.000000
vt 1.000000 1.000000
vt 0.000000 1.000000
vt 0.000000 0.000000
vt 0.000000 1.000000
vt 1.000000 1.000000
vt 1.000000 0.000000
vn 0.0000 1.0000 0.0000
vn 0.0000 -1.0000 0.0000
vn -1.0000 0.0000 0.0000
vn 0.0000 0.0000 1.0000
vn 1.0000 0.0000 0.0000
vn 0.0000 0.0000 -1.0000
g tetto_Plane.003_Material.001
usemtl Material.001
s off
f 81/247/15 82/248/15 84/249/15 83/250/15
f 85/251/16 87/252/16 88/253/16 86/254/16
f 81/247/17 83/250/17 87/252/17 85/251/17
f 82/248/18 81/247/18 85/251/18 86/254/18
f 84/249/19 82/248/19 86/254/19 88/253/19
f 83/250/20 84/249/20 88/253/20 87/252/20
o foto_Plane.001
v -5.632732 5.463758 -2.189375
v -5.654117 2.346869 -2.189375
v -5.632732 5.463758 -7.495552
v -5.654117 2.346869 -7.495552
v -5.674072 5.464042 -2.189375
v -5.695457 2.347153 -2.189375
v -5.674072 5.464042 -7.495552
v -5.695457 2.347153 -7.495552
vt 0.999906 0.000094
vt 0.999906 0.888225
vt 0.000094 0.888225
vt 0.000094 0.000094
vt 0.999906 0.000094
vt 0.999906 0.888225
vt 0.000094 0.888225
vt 0.000094 0.000094
vt 0.000000 0.000000
vt 0.000000 1.000000
vt 0.000000 1.000000
vt 0.000000 0.000000
vt 1.000000 0.000000
vt 1.000000 0.000000
vt 1.000000 1.000000
vt 1.000000 1.000000
vn 1.0000 -0.0069 0.0000
vn -1.0000 0.0069 0.0000
vn 0.0069 1.0000 0.0000
vn 0.0000 0.0000 1.0000
vn -0.0069 -1.0000 0.0000
vn 0.0000 0.0000 -1.0000
g foto_Plane.001_foto
usemtl foto
s off
f 89/255/21 90/256/21 92/257/21 91/258/21
f 93/259/22 95/260/22 96/261/22 94/262/22
f 89/263/23 91/264/23 95/265/23 93/266/23
f 90/267/24 89/263/24 93/266/24 94/268/24
f 92/269/25 90/267/25 94/268/25 96/270/25
f 91/264/26 92/269/26 96/270/26 95/265/26
o vetro_Plane.004
v -5.485737 5.463758 -2.171460
v -5.507123 2.346869 -2.171460
v -5.485737 5.463758 -7.379264
v -5.507123 2.346869 -7.379264
v -5.527078 5.464042 -2.171460
v -5.548462 2.347153 -2.171460
v -5.527078 5.464042 -7.379264
v -5.548462 2.347153 -7.379264
vt 0.000000 0.000000
vt 0.000000 1.000000
vt 1.000000 1.000000
vt 1.000000 0.000000
vt 0.000000 0.000000
vt 0.000000 1.000000
vt 1.000000 0.000000
vt 1.000000 1.000000
vt 0.999906 0.000094
vt 0.999906 0.888225
vt 0.000094 0.888225
vt 0.000094 0.000094
vn -1.0000 0.0069 0.0000
vn 0.0069 1.0000 0.0000
vn 0.0000 0.0000 1.0000
vn -0.0069 -1.0000 0.0000
vn 0.0000 0.0000 -1.0000
vn 1.0000 -0.0069 0.0000
g vetro_Plane.004_Material
usemtl Material
s off
f 101/271/27 103/272/27 104/273/27 102/274/27
f 97/275/28 99/276/28 103/272/28 101/271/28
f 98/277/29 97/275/29 101/271/29 102/274/29
f 100/278/30 98/277/30 102/274/30 104/273/30
f 99/276/31 100/278/31 104/273/31 103/272/31
g vetro_Plane.004_vetro
usemtl vetro
f 97/279/32 98/280/32 100/281/32 99/282/32
o anta_dx_Plane.005
v -5.202315 6.967054 3.800435
v -5.198029 -0.226329 3.800435
v -5.202315 6.967054 0.726622
v -5.198029 -0.226329 0.726622
v -5.202242 6.844222 0.779109
v -5.202242 6.844222 3.747948
v -5.198102 -0.103498 3.747948
v -5.198102 -0.103498 0.779109
v -5.472960 6.966893 3.800435
v -5.468673 -0.226490 3.800435
v -5.472960 6.966893 0.726622
v -5.468673 -0.226490 0.726622
v -5.472886 6.844061 0.779109
v -5.472886 6.844061 3.747948
v -5.468746 -0.103659 3.747948
v -5.468746 -0.103659 0.779109
vt 0.455895 0.950007
vt 0.454487 0.042273
vt 0.727437 0.040865
vt 0.728846 0.948599
vt 0.726265 0.974121
vt 0.448877 0.975579
vt 0.982924 0.017076
vt 0.017076 0.017076
vt 0.000000 0.000000
vt 1.000000 0.000000
vt 0.982924 0.982924
vt 1.000000 1.000000
vt 0.724807 0.034613
vt 0.455895 0.950007
vt 0.728846 0.948599
vt 0.727437 0.040865
vt 0.454487 0.042273
vt 0.448877 0.975579
vt 0.726265 0.974121
vt 0.982924 0.017076
vt 1.000000 0.000000
vt 0.000000 0.000000
vt 0.017076 0.017076
vt 0.982924 0.982924
vt 1.000000 1.000000
vt 0.724807 0.034613
vn 1.0000 0.0006 0.0000
vn -1.0000 -0.0006 0.0000
vn -0.0006 1.0000 0.0000
vn 0.0000 0.0000 1.0000
vn 0.0006 -1.0000 0.0000
vn 0.0000 0.0000 -1.0000
g anta_dx_Plane.005_Material.003
usemtl Material.003
s off
f 110/283/33 111/284/33 112/285/33 109/286/33
f 110/283/33 109/286/33 107/287/33 105/288/33
f 111/289/33 110/290/33 105/291/33 106/292/33
f 112/293/33 111/289/33 106/292/33 108/294/33
f 109/286/33 112/285/33 108/295/33 107/287/33
f 118/296/34 117/297/34 120/298/34 119/299/34
f 118/296/34 113/300/34 115/301/34 117/297/34
f 119/302/34 114/303/34 113/304/34 118/305/34
f 120/306/34 116/307/34 114/303/34 119/302/34
f 117/297/34 115/301/34 116/308/34 120/298/34
f 105/288/35 107/287/35 115/301/35 113/300/35
f 106/292/36 105/291/36 113/304/36 114/303/36
f 108/294/37 106/292/37 114/303/37 116/307/37
f 107/287/38 108/295/38 116/308/38 115/301/38
o Plane.002_Plane.006
v -5.202315 6.967054 3.971301
v -5.198029 -0.226330 3.971301
v -5.202315 6.967054 3.784046
v -5.198029 -0.226330 3.784046
v -5.472959 6.966893 3.971301
v -5.468673 -0.226491 3.971301
v -5.472959 6.966893 3.784046
v -5.468673 -0.226491 3.784046
vt 0.000000 0.000000
vt 1.000000 0.000000
vt 1.000000 1.000000
vt 0.000000 1.000000
vt 0.000000 0.000000
vt 0.000000 1.000000
vt 1.000000 1.000000
vt 1.000000 0.000000
vn 1.0000 0.0006 0.0000
vn -1.0000 -0.0006 0.0000
vn -0.0006 1.0000 0.0000
vn 0.0000 0.0000 1.0000
vn 0.0006 -1.0000 0.0000
vn 0.0000 0.0000 -1.0000
g Plane.002_Plane.006_Material.002
usemtl Material.002
s off
f 121/309/39 122/310/39 124/311/39 123/312/39
f 125/313/40 127/314/40 128/315/40 126/316/40
f 121/309/41 123/312/41 127/314/41 125/313/41
f 122/310/42 121/309/42 125/313/42 126/316/42
f 124/311/43 122/310/43 126/316/43 128/315/43
f 123/312/44 124/311/44 128/315/44 127/314/44
o anta_sx_Plane.012
v -5.202315 6.967054 7.049406
v -5.198029 -0.226329 7.049406
v -5.202315 6.967054 3.975593
v -5.198029 -0.226329 3.975593
v -5.202232 6.827668 4.035154
v -5.202232 6.827668 6.989845
v -5.198112 -0.086943 6.989845
v -5.198112 -0.086943 4.035154
v -5.472959 6.966893 7.049406
v -5.468673 -0.226490 7.049406
v -5.472959 6.966893 3.975593
v -5.468673 -0.226490 3.975593
v -5.472876 6.827507 4.035154
v -5.472876 6.827507 6.989845
v -5.468756 -0.087104 6.989845
v -5.468756 -0.087104 4.035154
vt 0.243599 0.963748
vt 0.247710 0.035703
vt 0.471314 0.036253
vt 0.467203 0.964297
vt 0.475414 0.983088
vt 0.235222 0.982372
vt 0.239499 0.016912
vt 0.479690 0.017628
vt 0.243599 0.963748
vt 0.467203 0.964297
vt 0.471314 0.036253
vt 0.247710 0.035703
vt 0.235222 0.982372
vt 0.475414 0.983088
vt 0.239499 0.016912
vt 0.479690 0.017628
vn 1.0000 0.0006 0.0000
vn -1.0000 -0.0006 0.0000
vn -0.0006 1.0000 0.0000
vn 0.0000 0.0000 1.0000
vn 0.0006 -1.0000 0.0000
vn 0.0000 0.0000 -1.0000
g anta_sx_Plane.012_Material.015
usemtl Material.015
s off
f 134/317/45 135/318/45 136/319/45 133/320/45
f 134/317/45 133/320/45 131/321/45 129/322/45
f 135/318/45 134/317/45 129/322/45 130/323/45
f 136/319/45 135/318/45 130/323/45 132/324/45
f 133/320/45 136/319/45 132/324/45 131/321/45
f 142/325/46 141/326/46 144/327/46 143/328/46
f 142/325/46 137/329/46 139/330/46 141/326/46
f 143/328/46 138/331/46 137/329/46 142/325/46
f 144/327/46 140/332/46 138/331/46 143/328/46
f 141/326/46 139/330/46 140/332/46 144/327/46
f 129/322/47 131/321/47 139/330/47 137/329/47
f 130/323/48 129/322/48 137/329/48 138/331/48
f 132/324/49 130/323/49 138/331/49 140/332/49
f 131/321/50 132/324/50 140/332/50 139/330/50
