# Blender v3.1.2 OBJ File: 'room.blend'
# www.blender.org
mtllib room.mtl
o room_Plane
v -5.214415 -0.000001 8.377805
v 5.036813 -0.000001 8.377805
v -5.214415 -0.000001 -8.377805
v 5.036813 -0.000001 -8.377805
v -5.474076 8.661166 -8.842472
v 5.296474 8.661166 -8.842472
v 5.296474 8.649539 8.842472
v 5.296474 8.649539 -8.842472
v -5.474076 8.653010 8.842472
v 5.296474 8.653010 8.842472
v -5.474076 2.313546 8.842472
v -5.474076 2.313546 -8.842472
v -5.214415 -0.000001 -7.427837
v 5.036813 -0.000001 -7.427837
v 5.296474 8.649539 -7.427837
v -5.474076 2.313546 -7.427837
v -5.214415 -0.000001 -2.194666
v -5.474076 2.313546 -2.194666
v 5.036813 -0.000001 -2.194666
v 5.296474 8.649539 -2.194666
v -5.474076 8.635483 8.842472
v -5.474076 8.635483 -2.194666
v -5.474076 8.675829 -8.842472
v -5.474076 8.675829 -7.427837
v -5.474076 5.432845 8.842472
v -5.474076 5.432845 -2.194666
v -5.474076 8.635483 -7.435881
v -5.474076 5.432845 -7.435881
v -5.671727 -0.246932 9.196171
v 5.494125 -0.246932 9.196171
v -5.671727 -0.246932 -9.196171
v 5.494125 -0.246932 -9.196171
v -5.474076 8.661166 -9.196171
v 5.296474 8.661166 -9.196171
v 5.494125 8.649539 8.842472
v 5.494125 8.649539 -8.842472
v -5.474076 8.653010 9.196171
v 5.296474 8.653010 9.196171
v -5.671727 2.313546 8.842472
v -5.671727 2.313546 -8.842472
v -5.671727 -0.246932 -7.427837
v 5.494125 -0.246932 -7.427837
v 5.494125 8.649539 -7.427837
v -5.671727 2.313546 -7.427837
v -5.671727 -0.246932 -2.194666
v -5.671727 2.313546 -2.194666
v 5.494125 -0.246932 -2.194666
v 5.494125 8.649539 -2.194666
v -5.671727 8.635483 8.842472
v -5.671727 8.635483 -2.194666
v -5.671727 8.675829 -8.842472
v -5.671727 8.675829 -7.427837
v -5.671727 5.432845 8.842472
v -5.671727 5.432845 -2.194666
v -5.671727 8.635483 -7.435881
v -5.671727 5.432845 -7.435881
v -5.474076 -0.000001 -2.194666
v -5.474076 -0.000001 8.842472
v 5.296474 -0.000001 8.842472
v 5.296474 -0.000001 -7.427837
v 5.296474 -0.000001 -8.842472
v -5.474076 -0.000001 -8.842472
v -5.474076 -0.000001 -7.427837
v 5.296474 -0.000001 -2.194666
v -5.474076 0.453964 -2.194666
v -5.474076 0.453964 8.842472
v 5.296474 0.453964 8.842472
v 5.296474 0.453964 -7.427837
v 5.296474 0.453964 -8.842472
v -5.474076 0.453964 -8.842472
v -5.474076 0.453964 -7.427837
v 5.296474 0.453964 -2.194666
v -5.214415 0.453964 -2.194666
v -5.214415 0.453964 8.377805
v 5.036813 0.453964 8.377805
v 5.036813 0.453964 -7.427837
v 5.036813 0.453964 -8.377805
v -5.214415 0.453964 -8.377805
v -5.214415 0.453964 -7.427837
v 5.036813 0.453964 -2.194666
vt 0.342346 0.144153
vt 0.362968 0.144153
vt 0.362968 0.377177
vt 0.342346 0.377177
vt 0.281317 0.144153
vt 0.281317 0.377177
vt 0.148477 0.144153
vt 0.148477 0.377177
vt 0.515895 0.731537
vt 0.515895 0.586994
vt 0.520020 0.582863
vt 0.520020 0.731537
vt 0.524145 0.587015
vt 0.524145 0.625660
vt 0.520020 0.625660
vt 0.524145 0.677765
vt 0.520020 0.677765
vt 0.346902 0.572581
vt 0.346902 0.678857
vt 0.342777 0.678857
vt 0.342777 0.572581
vt 0.524145 0.731262
vt 0.520020 0.731262
vt 0.540644 0.582863
vt 0.540644 0.636361
vt 0.536519 0.636361
vt 0.536519 0.582863
vt 0.335194 0.566921
vt 0.335194 0.583419
vt 0.327611 0.583419
vt 0.327611 0.566921
vt 0.342777 0.377177
vt 0.342777 0.393674
vt 0.335194 0.393674
vt 0.335194 0.377177
vt 0.304861 0.601951
vt 0.304861 0.377177
vt 0.312444 0.377177
vt 0.312444 0.601951
vt 0.342777 0.454704
vt 0.335194 0.454704
vt 0.342777 0.583419
vt 0.335194 0.583419
vt 0.335194 0.505892
vt 0.327611 0.505892
vt 0.335194 0.377177
vt 0.327611 0.377177
vt 0.297278 0.601951
vt 0.297278 0.377177
vt 0.304861 0.377177
vt 0.304861 0.601951
vt 0.547294 0.582863
vt 0.547294 0.368927
vt 0.558373 0.368927
vt 0.558373 0.582863
vt 0.486265 0.582863
vt 0.486265 0.368927
vt 0.362968 0.582863
vt 0.362968 0.368927
vt 0.358844 0.601951
vt 0.358844 0.377177
vt 0.362968 0.377177
vt 0.362968 0.601951
vt 0.726510 0.144153
vt 0.726510 0.160650
vt 0.722385 0.160650
vt 0.722385 0.144153
vt 2.247083 1.721527
vt 1.180753 1.750439
vt 1.180222 1.700344
vt 2.246552 1.671432
vt 0.726510 0.221680
vt 0.722385 0.221680
vt 0.726510 0.350395
vt 0.722385 0.350395
vt 0.726510 0.333991
vt 0.726510 0.205276
vt 0.730634 0.205276
vt 0.730634 0.333991
vt 0.544769 0.599361
vt 0.544769 0.582863
vt 0.548894 0.582863
vt 0.548894 0.599361
vt 0.726510 0.144153
vt 0.730634 0.144153
vt 0.350360 0.388255
vt 0.350360 0.449285
vt 0.342777 0.449285
vt 0.342777 0.388255
vt 0.357943 0.561502
vt 0.357943 0.572581
vt 0.350360 0.572581
vt 0.350360 0.561502
vt 0.327611 0.377177
vt 0.327611 0.591113
vt 0.320027 0.591113
vt 0.320027 0.377177
vt 0.368387 0.363508
vt 0.491684 0.363508
vt 0.491684 0.368927
vt 0.362968 0.368927
vt 0.368387 0.149572
vt 0.362968 0.144153
vt 0.563792 0.149572
vt 0.552713 0.149572
vt 0.552713 0.144153
vt 0.569211 0.144153
vt 0.563792 0.363508
vt 0.569211 0.368927
vt 0.552713 0.363508
vt 0.552713 0.368927
vt 0.491684 0.149572
vt 0.491684 0.144153
vt 0.357943 0.500473
vt 0.350360 0.500473
vt 0.350360 0.572581
vt 0.342777 0.572581
vt 0.357943 0.377177
vt 0.350360 0.377177
vt 0.312444 0.591113
vt 0.312444 0.377177
vt 0.320027 0.377177
vt 0.320027 0.591113
vt 0.350360 0.377177
vt 0.342777 0.377177
vt -0.296548 -3.912639
vt 0.350820 -3.927412
vt 0.367403 -2.067101
vt -0.279966 -2.052328
vt 0.847838 0.791695
vt 0.847838 0.808193
vt 0.809191 0.808193
vt 0.809191 0.791695
vt 2.004336 -1.350469
vt 2.317317 -1.349490
vt 2.316696 -0.842118
vt 2.003716 -0.843096
vt -0.686466 -3.903741
vt -0.603493 -3.905635
vt -0.586910 -2.045324
vt -0.669884 -2.043430
vt 1.329678 -1.394494
vt 2.018997 -1.392340
vt 2.018351 -0.862508
vt 1.329032 -0.864662
vt 1.328159 -0.150299
vt 2.017478 -0.148144
vt 2.016582 0.585303
vt 1.327264 0.583148
vt 2.401302 -0.841854
vt 2.399598 0.553431
vt 2.314993 0.553167
vt 2.002023 0.543341
vt 2.002881 -0.159016
vt 2.316342 -0.158035
vt 2.315485 0.544321
vt 1.018361 5.111223
vt 1.001305 3.197803
vt 1.648674 3.183030
vt 1.686476 5.095976
vt -0.013749 2.301224
vt -0.013064 1.739696
vt 0.071542 1.739961
vt 0.092009 2.301554
vt -0.326730 2.300246
vt -0.326044 1.738718
vt 0.607697 5.120594
vt 0.611387 3.206701
vt 0.694360 3.204807
vt 0.711416 5.118227
vt -1.007982 2.298116
vt -0.986143 1.736655
vt -0.985308 1.052576
vt -0.984450 0.350219
vt -0.324352 0.352282
vt -0.325210 1.054639
vt -0.011360 0.344412
vt 0.073245 0.344677
vt -0.010891 0.353262
vt -0.011747 1.055618
vt 0.734759 0.148283
vt 0.734759 0.292963
vt 0.730634 0.292963
vt 0.730634 0.144153
vt 0.507645 0.731674
vt 0.507645 0.586994
vt 0.511770 0.582863
vt 0.511770 0.731674
vt 0.351033 0.717064
vt 0.351040 0.572581
vt 0.355164 0.572581
vt 0.355164 0.721215
vt 0.346908 0.721215
vt 0.346902 0.576732
vt 0.351033 0.572581
vt 0.351033 0.721215
vt 0.119682 -0.729258
vt -0.566033 -0.710666
vt -0.566563 -0.760760
vt 0.138748 -0.779884
vt 0.346902 0.717503
vt 0.342784 0.721654
vt 0.532394 0.643893
vt 0.532394 0.582863
vt 0.536519 0.582863
vt 0.536519 0.643893
vt 0.528270 0.582863
vt 0.528270 0.689139
vt 0.524145 0.689139
vt 0.524145 0.582863
vt 0.544769 0.582863
vt 0.544769 0.634968
vt 0.540644 0.634968
vt 0.540644 0.582863
vt 0.532394 0.582863
vt 0.532394 0.643987
vt 0.528270 0.643987
vt 0.528270 0.582863
vt 0.494985 0.000000
vt 0.494985 0.964597
vt 0.343404 0.964597
vt 0.343404 0.000000
vt 0.848000 -0.021959
vt 0.850071 0.481017
vt 0.022385 0.470750
vt 0.020314 -0.032226
vt 0.187500 0.000000
vt 0.343404 0.017701
vt 0.343404 0.982299
vt 0.187500 1.000000
vt 0.852217 1.002452
vt 0.000874 0.982669
vt -0.001197 0.479694
vt 0.850071 0.481017
vn 0.0000 -1.0000 -0.0000
vn -0.9640 0.0109 -0.2656
vn 0.6464 0.0552 0.7610
vn 0.0000 0.0000 1.0000
vn 0.0000 0.0000 -1.0000
vn 1.0000 0.0000 0.0000
vn -1.0000 0.0000 0.0000
vn 0.0000 1.0000 0.0000
vn -0.9640 0.0108 0.2656
vn 0.9640 0.0108 0.2656
vn -0.6615 0.0151 -0.7498
vn -0.6615 0.0151 0.7498
vn 0.9640 0.0109 -0.2656
vn 0.6464 0.0552 -0.7610
g room_Plane_Material.005
usemtl Material.005
s off
f 41/1/1 31/2/1 32/3/1 42/4/1
f 45/5/1 41/1/1 42/4/1 47/6/1
f 29/7/1 45/5/1 47/6/1 30/8/1
f 9/9/2 58/10/2 29/11/2 37/12/2
f 58/13/3 11/14/3 39/15/3 29/11/3
f 11/14/4 25/16/4 53/17/4 39/15/4
f 23/18/5 12/19/5 40/20/5 51/21/5
f 25/16/4 21/22/4 49/23/4 53/17/4
f 27/24/5 28/25/5 56/26/5 55/27/5
f 60/28/6 61/29/6 69/30/6 68/31/6
f 62/32/7 63/33/7 71/34/7 70/35/7
f 58/36/4 59/37/4 67/38/4 66/39/4
f 63/33/7 57/40/7 65/41/7 71/34/7
f 57/40/7 58/42/7 66/43/7 65/41/7
f 64/44/6 60/28/6 68/31/6 72/45/6
f 59/46/6 64/44/6 72/45/6 67/47/6
f 61/48/5 62/49/5 70/50/5 69/51/5
g room_Plane_pavimento
usemtl pavimento
f 13/52/8 14/53/8 4/54/8 3/55/8
f 17/56/8 19/57/8 14/53/8 13/52/8
f 1/58/8 2/59/8 19/57/8 17/56/8
f 5/60/8 6/61/8 34/62/8 33/63/8
f 8/64/8 15/65/8 43/66/8 36/67/8
f 10/68/8 9/69/8 37/70/8 38/71/8
f 15/65/8 20/72/8 48/73/8 43/66/8
f 20/72/8 7/74/8 35/75/8 48/73/8
f 21/76/8 22/77/8 50/78/8 49/79/8
f 24/80/8 23/81/8 51/82/8 52/83/8
f 22/77/8 27/84/8 55/85/8 50/78/8
g room_Plane_battiscopa
usemtl battiscopa
f 14/86/7 19/87/7 80/88/7 76/89/7
f 13/90/6 3/91/6 78/92/6 79/93/6
f 3/94/4 4/95/4 77/96/4 78/97/4
f 74/98/8 73/99/8 65/100/8 66/101/8
f 75/102/8 74/98/8 66/101/8 67/103/8
f 77/104/8 76/105/8 68/106/8 69/107/8
f 78/108/8 77/104/8 69/107/8 70/109/8
f 79/110/8 78/108/8 70/109/8 71/111/8
f 76/105/8 80/112/8 72/113/8 68/106/8
f 73/99/8 79/110/8 71/111/8 65/100/8
f 80/112/8 75/102/8 67/103/8 72/113/8
f 17/114/6 13/90/6 79/93/6 73/115/6
f 19/87/7 2/116/7 75/117/7 80/88/7
f 1/118/6 17/114/6 73/115/6 74/119/6
f 2/120/5 1/121/5 74/122/5 75/123/5
f 4/124/7 14/86/7 76/89/7 77/125/7
g room_Plane_Material.016
usemtl Material.016
f 64/126/7 59/127/7 7/128/7 20/129/7
f 63/130/6 62/131/6 12/132/6 16/133/6
f 57/134/6 63/135/6 16/136/6 18/137/6
f 61/138/7 60/139/7 15/140/7 8/141/7
f 58/142/6 57/143/6 18/144/6 11/145/6
f 60/139/7 64/126/7 20/129/7 15/140/7
f 25/146/6 26/147/6 22/148/6 21/149/6
f 16/136/6 12/150/6 23/151/6 24/152/6
f 11/145/6 18/144/6 26/147/6 25/146/6
f 22/153/6 26/154/6 28/155/6 27/156/6
f 47/157/6 48/158/6 35/159/6 30/160/6
f 41/161/7 44/162/7 40/163/7 31/164/7
f 45/165/7 46/166/7 44/162/7 41/161/7
f 32/167/6 36/168/6 43/169/6 42/170/6
f 29/171/7 39/172/7 46/166/7 45/165/7
f 42/170/6 43/169/6 48/158/6 47/157/6
f 53/173/7 49/174/7 50/175/7 54/176/7
f 44/162/7 52/177/7 51/178/7 40/163/7
f 39/172/7 53/173/7 54/176/7 46/166/7
f 50/175/7 55/179/7 56/180/7 54/176/7
f 62/181/9 5/182/9 33/183/9 31/184/9
f 6/185/10 61/186/10 32/187/10 34/188/10
f 61/189/11 8/190/11 36/191/11 32/192/11
f 7/193/12 59/194/12 30/195/12 35/196/12
f 59/197/13 10/198/13 38/199/13 30/200/13
f 12/19/14 62/201/14 31/202/14 40/20/14
f 18/203/8 16/204/8 44/205/8 46/206/8
f 16/207/4 24/208/4 52/209/4 44/210/4
f 26/211/5 18/212/5 46/213/5 54/214/5
f 28/215/1 26/216/1 54/217/1 56/218/1
g room_Plane_Material.004
usemtl Material.004
f 62/219/4 61/220/4 6/221/4 5/222/4
f 59/223/5 58/224/5 9/225/5 10/226/5
f 31/227/5 33/228/5 34/229/5 32/230/5
f 30/231/4 38/232/4 37/233/4 29/234/4
o tetto_Plane.003
v -5.583470 8.781884 8.930866
v 5.402102 8.781884 8.930866
v -5.583470 8.781884 -8.930866
v 5.402102 8.781884 -8.930866
v -5.583470 8.576090 8.930866
v 5.402102 8.576090 8.930866
v -5.583470 8.576090 -8.930866
v 5.402102 8.576090 -8.930866
vt 0.000000 0.000000
vt 1.000000 0.000000
vt 1.000000 1.000000
vt 0.000000 1.000000
vt 0.000000 0.000000
vt 0.000000 1.000000
vt 1.000000 1.000000
vt 1.000000 0.000000
vn 0.0000 1.0000 0.0000
vn 0.0000 -1.0000 0.0000
vn -1.0000 0.0000 0.0000
vn 0.0000 0.0000 1.0000
vn 1.0000 0.0000 0.0000
vn 0.0000 0.0000 -1.0000
g tetto_Plane.003_Material.001
usemtl Material.001
s off
f 81/235/15 82/236/15 84/237/15 83/238/15
f 85/239/16 87/240/16 88/241/16 86/242/16
f 81/235/17 83/238/17 87/240/17 85/239/17
f 82/236/18 81/235/18 85/239/18 86/242/18
f 84/237/19 82/236/19 86/242/19 88/241/19
f 83/238/20 84/237/20 88/241/20 87/240/20
o foto_Plane.001
v -5.632732 5.463758 -2.189375
v -5.654117 2.346869 -2.189375
v -5.632732 5.463758 -7.495552
v -5.654117 2.346869 -7.495552
v -5.674072 5.464042 -2.189375
v -5.695457 2.347153 -2.189375
v -5.674072 5.464042 -7.495552
v -5.695457 2.347153 -7.495552
vt 0.999906 0.000094
vt 0.999906 0.888225
vt 0.000094 0.888225
vt 0.000094 0.000094
vt 0.999906 0.000094
vt 0.999906 0.888225
vt 0.000094 0.888225
vt 0.000094 0.000094
vt 0.000000 0.000000
vt 0.000000 1.000000
vt 0.000000 1.000000
vt 0.000000 0.000000
vt 1.000000 0.000000
vt 1.000000 0.000000
vt 1.000000 1.000000
vt 1.000000 1.000000
vn 1.0000 -0.0069 0.0000
vn -1.0000 0.0069 0.0000
vn 0.0069 1.0000 0.0000
vn 0.0000 0.0000 1.0000
vn -0.0069 -1.0000 0.0000
vn 0.0000 0.0000 -1.0000
g foto_Plane.001_foto
usemtl foto
s off
f 89/243/21 90/244/21 92/245/21 91/246/21
f 93/247/22 95/248/22 96/249/22 94/250/22
f 89/251/23 91/252/23 95/253/23 93/254/23
f 90/255/24 89/251/24 93/254/24 94/256/24
f 92/257/25 90/255/25 94/256/25 96/258/25
f 91/252/26 92/257/26 96/258/26 95/253/26
o vetro_Plane.004
v -5.485737 5.463758 -2.171460
v -5.507123 2.346869 -2.171460
v -5.485737 5.463758 -7.379264
v -5.507123 2.346869 -7.379264
v -5.527078 5.464042 -2.171460
v -5.548462 2.347153 -2.171460
v -5.527078 5.464042 -7.379264
v -5.548462 2.347153 -7.379264
vt 0.000000 0.000000
vt 0.000000 1.000000
vt 1.000000 1.000000
vt 1.000000 0.000000
vt 0.000000 0.000000
vt 0.000000 1.000000
vt 1.000000 0.000000
vt 1.000000 1.000000
vt 0.999906 0.000094
vt 0.999906 0.888225
vt 0.000094 0.888225
vt 0.000094 0.000094
vn -1.0000 0.0069 0.0000
vn 0.0069 1.0000 0.0000
vn 0.0000 0.0000 1.0000
vn -0.0069 -1.0000 0.0000
vn 0.0000 0.0000 -1.0000
vn 1.0000 -0.0069 0.0000
g vetro_Plane.004_Material
usemtl Material
s off
f 101/259/27 103/260/27 104/261/27 102/262/27
f 97/263/28 99/264/28 103/260/28 101/259/28
f 98/265/29 97/263/29 101/259/29 102/262/29
f 100/266/30 98/265/30 102/262/30 104/261/30
f 99/264/31 100/266/31 104/261/31 103/260/31
g vetro_Plane.004_vetro
usemtl vetro
f 97/267/32 98/268/32 100/269/32 99/270/32
o anta_dx_Plane.005
v -5.202315 6.967054 3.800435
v -5.198029 -0.226329 3.800435
v -5.202315 6.967054 0.726622
v -5.198029 -0.226329 0.726622
v -5.202242 6.844222 0.779109
v -5.202242 6.844222 3.747948
v -5.198102 -0.103498 3.747948
v -5.198102 -0.103498 0.779109
v -5.472960 6.966893 3.800435
v -5.468673 -0.226490 3.800435
v -5.472960 6.966893 0.726622
v -5.468673 -0.226490 0.726622
v -5.472886 6.844061 0.779109
v -5.472886 6.844061 3.747948
v -5.468746 -0.103659 3.747948
v -5.468746 -0.103659 0.779109
vt 0.017076 0.017076
vt 0.982924 0.017076
vt 0.982924 0.982924
vt 0.017076 0.982924
vt 0.000000 1.000000
vt 0.000000 0.000000
vt 1.000000 0.000000
vt 1.000000 1.000000
vt 0.017076 0.017076
vt 0.017076 0.982924
vt 0.982924 0.982924
vt 0.982924 0.017076
vt 0.000000 0.000000
vt 0.000000 1.000000
vt 1.000000 0.000000
vt 1.000000 1.000000
vn 1.0000 0.0006 0.0000
vn -1.0000 -0.0006 0.0000
vn -0.0006 1.0000 0.0000
vn 0.0000 0.0000 1.0000
vn 0.0006 -1.0000 0.0000
vn 0.0000 0.0000 -1.0000
g anta_dx_Plane.005_Material.003
usemtl Material.003
s off
f 110/271/33 111/272/33 112/273/33 109/274/33
f 110/271/33 109/274/33 107/275/33 105/276/33
f 111/272/33 110/271/33 105/276/33 106/277/33
f 112/273/33 111/272/33 106/277/33 108/278/33
f 109/274/33 112/273/33 108/278/33 107/275/33
f 118/279/34 117/280/34 120/281/34 119/282/34
f 118/279/34 113/283/34 115/284/34 117/280/34
f 119/282/34 114/285/34 113/283/34 118/279/34
f 120/281/34 116/286/34 114/285/34 119/282/34
f 117/280/34 115/284/34 116/286/34 120/281/34
f 105/276/35 107/275/35 115/284/35 113/283/35
f 106/277/36 105/276/36 113/283/36 114/285/36
f 108/278/37 106/277/37 114/285/37 116/286/37
f 107/275/38 108/278/38 116/286/38 115/284/38
o Plane.002_Plane.006
v -5.202315 6.967054 3.971301
v -5.198029 -0.226330 3.971301
v -5.202315 6.967054 3.784046
v -5.198029 -0.226330 3.784046
v -5.472959 6.966893 3.971301
v -5.468673 -0.226491 3.971301
v -5.472959 6.966893 3.784046
v -5.468673 -0.226491 3.784046
vt 0.000000 0.000000
vt 1.000000 0.000000
vt 1.000000 1.000000
vt 0.000000 1.000000
vt 0.000000 0.000000
vt 0.000000 1.000000
vt 1.000000 1.000000
vt 1.000000 0.000000
vn 1.0000 0.0006 0.0000
vn -1.0000 -0.0006 0.0000
vn -0.0006 1.0000 0.0000
vn 0.0000 0.0000 1.0000
vn 0.0006 -1.0000 0.0000
vn 0.0000 0.0000 -1.0000
g Plane.002_Plane.006_Material.002
usemtl Material.002
s off
f 121/287/39 122/288/39 124/289/39 123/290/39
f 125/291/40 127/292/40 128/293/40 126/294/40
f 121/287/41 123/290/41 127/292/41 125/291/41
f 122/288/42 121/287/42 125/291/42 126/294/42
f 124/289/43 122/288/43 126/294/43 128/293/43
f 123/290/44 124/289/44 128/293/44 127/292/44
o finestra_dx_Plane.010
v -5.177772 6.160281 3.163516
v -5.176077 3.316391 3.163516
v -5.177772 6.160281 1.352679
v -5.176077 3.316391 1.352679
v -5.177670 5.989203 1.461612
v -5.177670 5.989203 3.054583
v -5.176179 3.487469 3.054583
v -5.176179 3.487469 1.461612
v -5.328130 6.160192 3.163516
v -5.326435 3.316302 3.163516
v -5.328130 6.160192 1.352679
v -5.326435 3.316302 1.352679
v -5.328028 5.989114 1.461612
v -5.328028 5.989114 3.054583
v -5.326537 3.487379 3.054583
v -5.326537 3.487379 1.461612
vt 0.060156 0.060156
vt 0.939844 0.060156
vt 0.939844 0.939844
vt 0.060156 0.939844
vt 0.060156 0.060156
vt 0.060156 0.939844
vt 0.939844 0.939844
vt 0.939844 0.060156
vt 0.000000 1.000000
vt 0.000000 0.000000
vt 1.000000 0.000000
vt 1.000000 1.000000
vt 0.000000 0.000000
vt 0.000000 1.000000
vt 1.000000 0.000000
vt 1.000000 1.000000
vn 1.0000 0.0006 0.0000
vn -1.0000 -0.0006 0.0000
vn -0.0006 1.0000 0.0000
vn 0.0000 0.0000 1.0000
vn 0.0006 -1.0000 0.0000
vn 0.0000 0.0000 -1.0000
g finestra_dx_Plane.010_Material.012
usemtl Material.012
s off
f 134/295/45 135/296/45 136/297/45 133/298/45
f 142/299/46 141/300/46 144/301/46 143/302/46
g finestra_dx_Plane.010_Material.011
usemtl Material.011
f 134/295/45 133/298/45 131/303/45 129/304/45
f 135/296/45 134/295/45 129/304/45 130/305/45
f 136/297/45 135/296/45 130/305/45 132/306/45
f 133/298/45 136/297/45 132/306/45 131/303/45
f 142/299/46 137/307/46 139/308/46 141/300/46
f 143/302/46 138/309/46 137/307/46 142/299/46
f 144/301/46 140/310/46 138/309/46 143/302/46
f 141/300/46 139/308/46 140/310/46 144/301/46
f 129/304/47 131/303/47 139/308/47 137/307/47
f 130/305/48 129/304/48 137/307/48 138/309/48
f 132/306/49 130/305/49 138/309/49 140/310/49
f 131/303/50 132/306/50 140/310/50 139/308/50
o finestra_sx_Plane.011
v -5.177772 6.160281 6.412486
v -5.176077 3.316391 6.412486
v -5.177772 6.160281 4.601650
v -5.176077 3.316391 4.601650
v -5.177670 5.989203 4.710583
v -5.177670 5.989203 6.303553
v -5.176179 3.487469 6.303553
v -5.176179 3.487469 4.710583
v -5.328130 6.160192 6.412486
v -5.326435 3.316302 6.412486
v -5.328130 6.160192 4.601650
v -5.326435 3.316302 4.601650
v -5.328028 5.989114 4.710583
v -5.328028 5.989114 6.303553
v -5.326537 3.487379 6.303553
v -5.326537 3.487379 4.710583
vt 0.060156 0.060156
vt 0.939844 0.060156
vt 0.939844 0.939844
vt 0.060156 0.939844
vt 0.060156 0.060156
vt 0.060156 0.939844
vt 0.939844 0.939844
vt 0.939844 0.060156
vt 0.000000 1.000000
vt 0.000000 0.000000
vt 1.000000 0.000000
vt 1.000000 1.000000
vt 0.000000 0.000000
vt 0.000000 1.000000
vt 1.000000 0.000000
vt 1.000000 1.000000
vn 1.0000 0.0006 0.0000
vn -1.0000 -0.0006 0.0000
vn -0.0006 1.0000 0.0000
vn 0.0000 0.0000 1.0000
vn 0.0006 -1.0000 0.0000
vn 0.0000 0.0000 -1.0000
g finestra_sx_Plane.011_Material.013
usemtl Material.013
s off
f 150/311/51 151/312/51 152/313/51 149/314/51
f 158/315/52 157/316/52 160/317/52 159/318/52
g finestra_sx_Plane.011_Material.014
usemtl Material.014
f 150/311/51 149/314/51 147/319/51 145/320/51
f 151/312/51 150/311/51 145/320/51 146/321/51
f 152/313/51 151/312/51 146/321/51 148/322/51
f 149/314/51 152/313/51 148/322/51 147/319/51
f 158/315/52 153/323/52 155/324/52 157/316/52
f 159/318/52 154/325/52 153/323/52 158/315/52
f 160/317/52 156/326/52 154/325/52 159/318/52
f 157/316/52 155/324/52 156/326/52 160/317/52
f 145/320/53 147/319/53 155/324/53 153/323/53
f 146/321/54 145/320/54 153/323/54 154/325/54
f 148/322/55 146/321/55 154/325/55 156/326/55
f 147/319/56 148/322/56 156/326/56 155/324/56
o anta_sx_Plane.012
v -5.202315 6.967054 7.049406
v -5.198029 -0.226329 7.049406
v -5.202315 6.967054 3.975593
v -5.198029 -0.226329 3.975593
v -5.202232 6.827668 4.035154
v -5.202232 6.827668 6.989845
v -5.198112 -0.086943 6.989845
v -5.198112 -0.086943 4.035154
v -5.472959 6.966893 7.049406
v -5.468673 -0.226490 7.049406
v -5.472959 6.966893 3.975593
v -5.468673 -0.226490 3.975593
v -5.472876 6.827507 4.035154
v -5.472876 6.827507 6.989845
v -5.468756 -0.087104 6.989845
v -5.468756 -0.087104 4.035154
vt 0.019377 0.019377
vt 0.980623 0.019377
vt 0.980623 0.980623
vt 0.019377 0.980623
vt 0.000000 1.000000
vt 0.000000 0.000000
vt 1.000000 0.000000
vt 1.000000 1.000000
vt 0.019377 0.019377
vt 0.019377 0.980623
vt 0.980623 0.980623
vt 0.980623 0.019377
vt 0.000000 0.000000
vt 0.000000 1.000000
vt 1.000000 0.000000
vt 1.000000 1.000000
vn 1.0000 0.0006 0.0000
vn -1.0000 -0.0006 0.0000
vn -0.0006 1.0000 0.0000
vn 0.0000 0.0000 1.0000
vn 0.0006 -1.0000 0.0000
vn 0.0000 0.0000 -1.0000
g anta_sx_Plane.012_Material.015
usemtl Material.015
s off
f 166/327/57 167/328/57 168/329/57 165/330/57
f 166/327/57 165/330/57 163/331/57 161/332/57
f 167/328/57 166/327/57 161/332/57 162/333/57
f 168/329/57 167/328/57 162/333/57 164/334/57
f 165/330/57 168/329/57 164/334/57 163/331/57
f 174/335/58 173/336/58 176/337/58 175/338/58
f 174/335/58 169/339/58 171/340/58 173/336/58
f 175/338/58 170/341/58 169/339/58 174/335/58
f 176/337/58 172/342/58 170/341/58 175/338/58
f 173/336/58 171/340/58 172/342/58 176/337/58
f 161/332/59 163/331/59 171/340/59 169/339/59
f 162/333/60 161/332/60 169/339/60 170/341/60
f 164/334/61 162/333/61 170/341/61 172/342/61
f 163/331/62 164/334/62 172/342/62 171/340/62
